<svg width="1200" height="680" viewBox="0 0 1200 680" fill="none" xmlns="http://www.w3.org/2000/svg">
<rect width="1200" height="680" fill="#F5F5F5"/>
<g clip-path="url(#clip0_0_1)">
<path d="M1197 0H3C1.34315 0 0 0.761116 0 1.7V678.3C0 679.239 1.34315 680 3 680H1197C1198.66 680 1200 679.239 1200 678.3V1.7C1200 0.761116 1198.66 0 1197 0Z" fill="#EAEAEA"/>
<g opacity="0.5">
<g opacity="0.5">
<path d="M599.863 476.483C524.409 476.483 463.242 415.316 463.242 339.863C463.242 264.409 524.409 203.242 599.863 203.242C675.316 203.242 736.483 264.409 736.483 339.863C736.483 415.316 675.316 476.483 599.863 476.483Z" fill="#FAFAFA"/>
</g>
<path d="M405.139 536.579L796.58 145.138" stroke="url(#paint0_linear_0_1)" stroke-width="2.418"/>
<path d="M404 338.654H795.726" stroke="url(#paint1_linear_0_1)" stroke-width="2.418"/>
<path d="M598.654 535.725V144" stroke="url(#paint2_linear_0_1)" stroke-width="2.418"/>
<path d="M599.863 396.687C568.479 396.687 543.038 371.246 543.038 339.863C543.038 308.479 568.479 283.038 599.863 283.038C631.246 283.038 656.687 308.479 656.687 339.863C656.687 371.246 631.246 396.687 599.863 396.687Z" fill="white"/>
<mask id="mask0_0_1" style="mask-type:luminance" maskUnits="userSpaceOnUse" x="580" y="320" width="40" height="40">
<path d="M580.518 320.518H619.207V359.207H580.518V320.518Z" fill="white"/>
</mask>
<g mask="url(#mask0_0_1)">
<path fill-rule="evenodd" clip-rule="evenodd" d="M615.58 326.563H584.146V342.739L587.699 339.185L588.23 338.654H597.298L597.372 338.58L605.835 330.117H608.4L615.58 337.298V326.563ZM599.865 341.217L603.563 344.916L604.846 346.198L602.281 348.763L600.999 347.48L595.799 342.281H589.733L584.219 347.795L584.146 347.868V350.744C584.146 351.385 584.401 352 584.854 352.454C585.308 352.907 585.923 353.162 586.564 353.162H613.162C613.803 353.162 614.418 352.907 614.872 352.454C615.325 352 615.58 351.385 615.58 350.744V342.427L607.117 333.964L599.936 341.145L599.865 341.217ZM580.518 346.659V350.744C580.518 351.538 580.674 352.324 580.978 353.057C581.282 353.791 581.727 354.457 582.289 355.019C582.85 355.58 583.517 356.025 584.25 356.329C584.984 356.633 585.77 356.789 586.564 356.789H613.162C613.956 356.789 614.742 356.633 615.475 356.329C616.209 356.025 616.875 355.58 617.437 355.019C617.998 354.457 618.443 353.791 618.747 353.057C619.051 352.324 619.207 351.538 619.207 350.744V343.636L620.563 342.281L619.281 340.998L619.207 340.925V322.936H580.518V346.366L580.372 346.512L580.518 346.659Z" fill="#666666"/>
</g>
<path d="M599.863 396.687C568.479 396.687 543.038 371.246 543.038 339.863C543.038 308.479 568.479 283.038 599.863 283.038C631.246 283.038 656.687 308.479 656.687 339.863C656.687 371.246 631.246 396.687 599.863 396.687Z" stroke="#C9C9C9" stroke-width="2.418"/>
</g>
</g>
<defs>
<linearGradient id="paint0_linear_0_1" x1="-nan" y1="-nan" x2="-nan" y2="-nan" gradientUnits="userSpaceOnUse">
<stop stop-color="#C9C9C9" stop-opacity="0"/>
<stop offset="0.208" stop-color="#C9C9C9"/>
<stop offset="0.792" stop-color="#C9C9C9"/>
<stop offset="1" stop-color="#C9C9C9" stop-opacity="0"/>
</linearGradient>
<linearGradient id="paint1_linear_0_1" x1="-nan" y1="-nan" x2="-nan" y2="-nan" gradientUnits="userSpaceOnUse">
<stop stop-color="#C9C9C9" stop-opacity="0"/>
<stop offset="0.208" stop-color="#C9C9C9"/>
<stop offset="0.792" stop-color="#C9C9C9"/>
<stop offset="1" stop-color="#C9C9C9" stop-opacity="0"/>
</linearGradient>
<linearGradient id="paint2_linear_0_1" x1="-nan" y1="-nan" x2="-nan" y2="-nan" gradientUnits="userSpaceOnUse">
<stop stop-color="#C9C9C9" stop-opacity="0"/>
<stop offset="0.208" stop-color="#C9C9C9"/>
<stop offset="0.792" stop-color="#C9C9C9"/>
<stop offset="1" stop-color="#C9C9C9" stop-opacity="0"/>
</linearGradient>
<clipPath id="clip0_0_1">
<rect width="1200" height="680" fill="white"/>
</clipPath>
</defs>
</svg>
